<?xml version="1.0" encoding="UTF-8" standalone="yes"?>
<svg xmlns="http://www.w3.org/2000/svg" height="301" width="901" version="1.0" id="svg2" >
    <g style="stroke:#000000;stroke-width:1">
    <g style="fill:#ffffff">
        <path d="m 0.5,0.5 60,0 0,60 -60,0 0,-60 z"/>
        <path d="m 60.5,0.5 60,0 0,60 -60,0 0,-60 z"/>
        <path d="m 120.5,0.5 60,0 0,60 -60,0 0,-60 z"/>
        <path d="m 180.5,0.5 60,0 0,60 -60,0 0,-60 z"/>
        <path d="m 240.5,0.5 60,0 0,60 -60,0 0,-60 z"/>
        <path d="m 300.5,0.5 60,0 0,60 -60,0 0,-60 z"/>
        <path d="m 360.5,0.5 60,0 0,60 -60,0 0,-60 z"/>
        <path d="m 420.5,0.5 60,0 0,60 -60,0 0,-60 z"/>
        <path d="m 480.5,0.5 60,0 0,60 -60,0 0,-60 z"/>
        <path d="m 540.5,0.5 60,0 0,60 -60,0 0,-60 z"/>
        <path d="m 600.5,0.5 60,0 0,60 -60,0 0,-60 z"/>
        <path d="m 660.5,0.5 60,0 0,60 -60,0 0,-60 z"/>
        <path d="m 720.5,0.5 60,0 0,60 -60,0 0,-60 z"/>
        <path d="m 90.5,60.5 60,0 0,60 -60,0 0,-60 z"/>
        <path d="m 150.5,60.5 60,0 0,60 -60,0 0,-60 z"/>
        <path d="m 210.5,60.5 60,0 0,60 -60,0 0,-60 z"/>
        <path d="m 270.5,60.5 60,0 0,60 -60,0 0,-60 z"/>
        <path d="m 330.5,60.5 60,0 0,60 -60,0 0,-60 z"/>
        <path d="m 390.5,60.5 60,0 0,60 -60,0 0,-60 z"/>
        <path d="m 450.5,60.5 60,0 0,60 -60,0 0,-60 z"/>
        <path d="m 510.5,60.5 60,0 0,60 -60,0 0,-60 z"/>
        <path d="m 570.5,60.5 60,0 0,60 -60,0 0,-60 z"/>
        <path d="m 630.5,60.5 60,0 0,60 -60,0 0,-60 z"/>
        <path d="m 690.5,60.5 60,0 0,60 -60,0 0,-60 z"/>
        <path d="m 750.5,60.5 60,0 0,60 -60,0 0,-60 z"/>
        <path d="m 810.5,60.5 90,0 0,60 -90,0 0,-60 z"/>
        <path d="m 345.5,120.5 60,0 0,60 -60,0 0,-60 z"/>
        <path d="m 405.5,120.5 60,0 0,60 -60,0 0,-60 z"/>
        <path d="m 705.5,120.5 60,0 0,60 -60,0 0,-60 z"/>
        <path d="m 135.5,180.5 60,0 0,60 -60,0 0,-60 z"/>
        <path d="m 255.5,180.5 60,0 0,60 -60,0 0,-60 z"/>
        <path d="m 195.5,180.5 60,0 0,60 -60,0 0,-60 z"/>
        <path d="m 315.5,180.5 60,0 0,60 -60,0 0,-60 z"/>
        <path d="m 375.5,180.5 60,0 0,60 -60,0 0,-60 z"/>
        <path d="m 435.5,180.5 60,0 0,60 -60,0 0,-60 z"/>
        <path d="m 495.5,180.5 60,0 0,60 -60,0 0,-60 z"/>
        <path d="m 555.5,180.5 60,0 0,60 -60,0 0,-60 z"/>
        <path d="m 615.5,180.5 60,0 0,60 -60,0 0,-60 z"/>
        <path d="m 675.5,180.5 60,0 0,60 -60,0 0,-60 z"/>
        <path d="m 240.5,240.5 360,0 0,60 -360,0 0,-60 z"/>
    </g>
    <g style="fill:#4B4B4B">
        <path d="m 105.5,120.5 60,0 0,60 -60,0 0,-60 z"/>
        <path d="m 165.5,120.5 60,0 0,60 -60,0 0,-60 z"/>
        <path d="m 225.5,120.5 60,0 0,60 -60,0 0,-60 z"/>
        <path d="m 285.5,120.5 60,0 0,60 -60,0 0,-60 z"/>
        <path d="m 465.5,120.5 60,0 0,60 -60,0 0,-60 z"/>
        <path d="m 525.5,120.5 60,0 0,60 -60,0 0,-60 z"/>
        <path d="m 585.5,120.5 60,0 0,60 -60,0 0,-60 z"/>
        <path d="m 645.5,120.5 60,0 0,60 -60,0 0,-60 z"/>
    </g>
    <g style="fill:#EBEDEF">
        <path d="m 90.5,240.5 60,0 0,60 -60,0 0,-60 z"/>
        <path d="m 690.5,240.5 60,0 0,60 -60,0 0,-60 z"/>
        <path d="m 750.5,240.5 60,0 0,60 -60,0 0,-60 z"/>
        <path d="m 780.5,0.5 120,0 0,60 -120,0 0,-60 z"/>
        <path d="m 0.5,60.5 90,0 0,60 -90,0 0,-60 z"/>
        <path d="m 0.5,120.5 105,0 0,60 -105,0 0,-60 z"/>
        <path d="m 765.5,120.5 135,0 0,60 -135,0 0,-60 z"/>
        <path d="m 0.5,180.5 135,0 0,60 -135,0 0,-60 z"/>
        <path d="m 735.5,180.5 165,0 0,60 -165,0 0,-60 z"/>
        <path d="m 0.5,240.5 90,0 0,60 -90,0 0,-60 z"/>
        <path d="m 810.5,240.5 90,0 0,60 -90,0 0,-60 z"/>
        <path d="m 150.5,240.5 90,0 0,60 -90,0 0,-60 z"/>
        <path d="m 600.5,240.5 90,0 0,60 -90,0 0,-60 z"/>
    </g>
    </g>

    <text style="font-weight:bold;font-size:18px;font-family:Sans;fill:#4B4B4B;fill-opacity:1">
        <tspan x="8" y="210">⇧</tspan>
        <tspan x="870" y="210">⇧</tspan>
    </text>

    <text style="font-weight:normal;font-size:20px;font-family:Sans;fill:#4B4B4B;fill-opacity:1">
        <tspan x="860" y="36">⌫</tspan>
    </text>

    <text style="font-weight:bold;font-size:16px;font-family:Sans;fill:#4B4B4B;fill-opacity:1">
        <tspan x="780" y="147">Command</tspan>
        <tspan x="780" y="166">Palette</tspan>
        <tspan x="8" y="147">Command</tspan>
        <tspan x="8" y="166">Mode</tspan>
        <tspan x="8" y="90">↹</tspan>
        <tspan x="155" y="263">Ctrl</tspan>
    </text>

    <text style="font-weight:bold;font-size:18px;font-family:Sans;fill:#4B4B4B;fill-opacity:1">
        <tspan x="357" y="279">Show Overlay</tspan>
    </text>

    <text style="font-weight:bold;font-size:21px;font-family:Sans;fill:#4B4B4B;fill-opacity:1">
        <tspan x="704" y="85">?</tspan>
        <tspan x="704" y="111">/</tspan>
        <tspan x="720" y="146">_</tspan>
        <tspan x="720" y="174">-</tspan>
        <tspan x="822" y="85">|</tspan>
        <tspan x="822" y="112">\</tspan>
        <tspan x="761" y="85">+</tspan>
        <tspan x="761" y="111">=</tspan>
    </text>

    <text style="font-weight:normal;font-size:15px;font-family:Sans;fill:#FF9800;fill-opacity:1">
        <tspan x="111" y="165">⇤↖</tspan>
        <tspan x="177" y="165">←</tspan>
        <tspan x="537" y="165">↓</tspan>
        <tspan x="590" y="165">finduexp</tspan>
        <tspan x="470" y="165">Insert</tspan>
        <tspan x="659" y="165">⇥↘</tspan>
        <tspan x="237" y="165">⌦</tspan>
        <tspan x="293" y="165">→</tspan>
        <tspan x="227" y="165"/>
    </text>
    <text style="font-weight:bold;font-size:20px;font-family:Sans;fill:#FF9800;fill-opacity:1">
        <tspan x="112" y="145">A</tspan>
        <tspan x="171" y="144">O</tspan>
        <tspan x="236" y="144">E</tspan>
        <tspan x="288" y="144">U</tspan>
        <tspan x="474" y="144">H</tspan>
        <tspan x="535" y="144">T</tspan>
        <tspan x="594" y="144">N</tspan>
        <tspan x="655" y="144">S</tspan>
    </text>
    <text style="font-weight:normal;font-size:15px;font-family:Sans;fill:#4B4B4B;fill-opacity:1">
        <tspan x="438" y="227">Select¶</tspan>
        <tspan x="531" y="99">↑</tspan>
        <tspan x="411" y="158">Select</tspan>
        <tspan x="411" y="173">to EOL</tspan>
        <tspan x="395" y="105">smart</tspan>
        <tspan x="395" y="117">select</tspan>
        <tspan x="458" y="107">⌫word</tspan>
        <tspan x="577" y="106">⌦word</tspan>
        <tspan x="635" y="104">␣insert</tspan>
        <tspan x="349" y="158">Select</tspan>
        <tspan x="349" y="173">→|</tspan>
        <tspan x="339" y="106">undo</tspan>
        <tspan x="280" y="107">→bow</tspan>
        <tspan x="218" y="108">→eow</tspan>
        <tspan x="158" y="107">←bow</tspan>
        <tspan x="302" y="47">Unsplit w</tspan>
        <tspan x="89" y="95">↩</tspan><tspan x="89" y="114">↩</tspan>
        <tspan x="322" y="229">Paste</tspan>
        <tspan x="375" y="229">Duplicate</tspan>
        <tspan x="212" y="227">Cut</tspan>
        <tspan x="268" y="228">Copy</tspan>
        <tspan x="136" y="227">Comment</tspan>
        <tspan x="504" y="224">Search</tspan>
        <tspan x="623" y="225">Next W</tspan>
        <tspan x="680" y="223">Find @</tspan>
        <tspan x="558" y="218">Add</tspan><tspan x="558" y="236">Cursor</tspan>
        <tspan x="204" y="52"/>
        <tspan x="243" y="47">Goto def</tspan>
        <tspan x="64" y="38">Next</tspan><tspan x="64" y="55">bmark</tspan>
        <tspan x="123" y="38">Toggle</tspan><tspan x="123" y="55">bmark</tspan>
        <tspan x="183" y="38">Save</tspan><tspan x="183" y="56">win</tspan>
        <tspan x="365" y="49">Split V</tspan>
        <tspan x="424" y="39">select</tspan><tspan x="424" y="58">bracket</tspan>
        <tspan x="483" y="38">Next</tspan><tspan x="483" y="56">mod</tspan>
        <tspan x="542" y="38">Toggle</tspan><tspan x="542" y="55">inline diff</tspan>
        <tspan x="604" y="38">Revert</tspan><tspan x="604" y="55">Mod</tspan>
        <tspan x="663" y="38">Git add</tspan><tspan x="663" y="55">hunk</tspan>
    </text>
    <text style="font-weight:bold;font-size:20px;font-family:Sans;fill:#4B4B4B;fill-opacity:1">
        <tspan x="68" y="23">1</tspan>
        <tspan x="132" y="23">2</tspan>
        <tspan x="189" y="23">3</tspan>
        <tspan x="248" y="23">4</tspan>
        <tspan x="308" y="23">5</tspan>
        <tspan x="366" y="23">6</tspan>
        <tspan x="428" y="23">7</tspan>
        <tspan x="485" y="23">8</tspan>
        <tspan x="545" y="23">9</tspan>
        <tspan x="605" y="23">0</tspan>
        <tspan x="663" y="23">[</tspan>
        <tspan x="352" y="144">I</tspan>
        <tspan x="413" y="144">D</tspan>
    </text>
</svg>
