<?xml version="1.0" encoding="UTF-8" standalone="yes"?>
<svg xmlns="http://www.w3.org/2000/svg" height="301" width="901" version="1.0" style="font-family:sans-serif;font-weight:normal;font-size:12px;fill:#4B4B4B" >
    <g style="stroke:#000000;stroke-width:1">
        <path d="m 105.5,120.5 60,0 0,60 -60,0 0,-60 z"/>
        <path d="m 165.5,120.5 60,0 0,60 -60,0 0,-60 z"/>
        <path d="m 225.5,120.5 60,0 0,60 -60,0 0,-60 z"/>
        <path d="m 285.5,120.5 60,0 0,60 -60,0 0,-60 z"/>
        <path d="m 465.5,120.5 60,0 0,60 -60,0 0,-60 z"/>
        <path d="m 525.5,120.5 60,0 0,60 -60,0 0,-60 z"/>
        <path d="m 585.5,120.5 60,0 0,60 -60,0 0,-60 z"/>
        <path d="m 645.5,120.5 60,0 0,60 -60,0 0,-60 z"/>
        <g style="fill:#ffffff">
            <path d="m 0.5,0.5 60,0 0,60 -60,0 0,-60 z"/>
            <path d="m 60.5,0.5 60,0 0,60 -60,0 0,-60 z"/>
            <path d="m 120.5,0.5 60,0 0,60 -60,0 0,-60 z"/>
            <path d="m 180.5,0.5 60,0 0,60 -60,0 0,-60 z"/>
            <path d="m 240.5,0.5 60,0 0,60 -60,0 0,-60 z"/>
            <path d="m 300.5,0.5 60,0 0,60 -60,0 0,-60 z"/>
            <path d="m 360.5,0.5 60,0 0,60 -60,0 0,-60 z"/>
            <path d="m 420.5,0.5 60,0 0,60 -60,0 0,-60 z"/>
            <path d="m 480.5,0.5 60,0 0,60 -60,0 0,-60 z"/>
            <path d="m 540.5,0.5 60,0 0,60 -60,0 0,-60 z"/>
            <path d="m 600.5,0.5 60,0 0,60 -60,0 0,-60 z"/>
            <path d="m 660.5,0.5 60,0 0,60 -60,0 0,-60 z"/>
            <path d="m 720.5,0.5 60,0 0,60 -60,0 0,-60 z"/>
            <path d="m 90.5,60.5 60,0 0,60 -60,0 0,-60 z"/>
            <path d="m 150.5,60.5 60,0 0,60 -60,0 0,-60 z"/>
            <path d="m 210.5,60.5 60,0 0,60 -60,0 0,-60 z"/>
            <path d="m 270.5,60.5 60,0 0,60 -60,0 0,-60 z"/>
            <path d="m 330.5,60.5 60,0 0,60 -60,0 0,-60 z"/>
            <path d="m 390.5,60.5 60,0 0,60 -60,0 0,-60 z"/>
            <path d="m 450.5,60.5 60,0 0,60 -60,0 0,-60 z"/>
            <path d="m 510.5,60.5 60,0 0,60 -60,0 0,-60 z"/>
            <path d="m 570.5,60.5 60,0 0,60 -60,0 0,-60 z"/>
            <path d="m 630.5,60.5 60,0 0,60 -60,0 0,-60 z"/>
            <path d="m 690.5,60.5 60,0 0,60 -60,0 0,-60 z"/>
            <path d="m 750.5,60.5 60,0 0,60 -60,0 0,-60 z"/>
            <path d="m 810.5,60.5 90,0 0,60 -90,0 0,-60 z"/>
            <path d="m 345.5,120.5 60,0 0,60 -60,0 0,-60 z"/>
            <path d="m 405.5,120.5 60,0 0,60 -60,0 0,-60 z"/>
            <path d="m 705.5,120.5 60,0 0,60 -60,0 0,-60 z"/>
            <path d="m 135.5,180.5 60,0 0,60 -60,0 0,-60 z"/>
            <path d="m 255.5,180.5 60,0 0,60 -60,0 0,-60 z"/>
            <path d="m 195.5,180.5 60,0 0,60 -60,0 0,-60 z"/>
            <path d="m 315.5,180.5 60,0 0,60 -60,0 0,-60 z"/>
            <path d="m 375.5,180.5 60,0 0,60 -60,0 0,-60 z"/>
            <path d="m 435.5,180.5 60,0 0,60 -60,0 0,-60 z"/>
            <path d="m 495.5,180.5 60,0 0,60 -60,0 0,-60 z"/>
            <path d="m 555.5,180.5 60,0 0,60 -60,0 0,-60 z"/>
            <path d="m 615.5,180.5 60,0 0,60 -60,0 0,-60 z"/>
            <path d="m 675.5,180.5 60,0 0,60 -60,0 0,-60 z"/>
            <path d="m 240.5,240.5 360,0 0,60 -360,0 0,-60 z"/>
        </g>
        <g style="fill:#EBEDEF">
            <path d="m 90.5,240.5 60,0 0,60 -60,0 0,-60 z"/>
            <path d="m 690.5,240.5 60,0 0,60 -60,0 0,-60 z"/>
            <path d="m 750.5,240.5 60,0 0,60 -60,0 0,-60 z"/>
            <path d="m 780.5,0.5 120,0 0,60 -120,0 0,-60 z"/>
            <path d="m 0.5,60.5 90,0 0,60 -90,0 0,-60 z"/>
            <path d="m 0.5,120.5 105,0 0,60 -105,0 0,-60 z"/>
            <path d="m 765.5,120.5 135,0 0,60 -135,0 0,-60 z"/>
            <path d="m 0.5,180.5 135,0 0,60 -135,0 0,-60 z"/>
            <path d="m 735.5,180.5 165,0 0,60 -165,0 0,-60 z"/>
            <path d="m 0.5,240.5 90,0 0,60 -90,0 0,-60 z"/>
            <path d="m 810.5,240.5 90,0 0,60 -90,0 0,-60 z"/>
            <path d="m 150.5,240.5 90,0 0,60 -90,0 0,-60 z"/>
            <path d="m 600.5,240.5 90,0 0,60 -90,0 0,-60 z"/>
        </g>
    </g>

    <g style="fill:#FF9800">
        <text>
            <tspan x="111" y="167">|← ↖&#xFE0E;</tspan>
            <tspan x="177" y="167">←</tspan>
            <tspan x="537" y="167">↓</tspan>
            <tspan x="590" y="161">Expand</tspan>
            <tspan x="590" y="174">Under C.</tspan>
            <tspan x="472" y="161">Insert</tspan>
            <tspan x="472" y="174">Mode</tspan>
            <tspan x="655" y="167">→| ↘&#xFE0E;</tspan>
            <tspan x="237" y="167">⌦</tspan>
            <tspan x="293" y="167">→</tspan>
        </text>

        <text style="font-weight:bold;font-size:20px">
            <tspan x="112" y="141">A</tspan>
            <tspan x="172" y="141">O</tspan>
            <tspan x="232" y="141">E</tspan>
            <tspan x="292" y="141">U</tspan>
            <tspan x="472" y="141">H</tspan>
            <tspan x="532" y="141">T</tspan>
            <tspan x="592" y="141">N</tspan>
            <tspan x="652" y="141">S</tspan>
        </text>
    </g>

    <text>
        <tspan x="143" y="228">Cmt</tspan>
        <tspan x="153" y="107">⌫Word</tspan>
        <tspan x="66" y="41">Goto</tspan>
        <tspan x="66" y="54">def</tspan>
        <tspan x="126" y="41">Save</tspan>
        <tspan x="126" y="54">buffer</tspan>
        <tspan x="182" y="41">Next</tspan>
        <tspan x="182" y="54">bookmark</tspan>
        <tspan x="203" y="228">Cut</tspan>
        <tspan x="214" y="107">Newline</tspan>
        <tspan x="242" y="41">Set</tspan>
        <tspan x="242" y="54">bookmark</tspan>
        <tspan x="263" y="228">Copy</tspan>
        <tspan x="275" y="107">⌦Word</tspan>
        <tspan x="306" y="41">Unsplit</tspan>
        <tspan x="306" y="54">window</tspan>
        <tspan x="323" y="228">Paste</tspan>
        <tspan x="337" y="107">Undo</tspan>
        <tspan x="349" y="158">Select</tspan>
        <tspan x="349" y="173">→|</tspan>
        <tspan x="365" y="41">Split</tspan>
        <tspan x="365" y="54">window</tspan>
        <tspan x="383" y="228">Search</tspan>
        <tspan x="395" y="102">Find</tspan>
        <tspan x="395" y="115">char</tspan>
        <tspan x="411" y="167">Select¶</tspan>
        <tspan x="426" y="41">Revert</tspan>
        <tspan x="426" y="54">mod</tspan>
        <tspan x="443" y="228">Sneak ←</tspan>
        <tspan x="457" y="107">Word |←</tspan>
        <tspan x="486" y="41">Next</tspan>
        <tspan x="486" y="54">mod</tspan>
        <tspan x="503" y="228">Sneak →</tspan>
        <tspan x="531" y="107">↑</tspan>
        <tspan x="544" y="41">Toggle</tspan>
        <tspan x="544" y="54">inline diff</tspan>
        <tspan x="563" y="221">Add C.</tspan>
        <tspan x="563" y="234">Below</tspan>
        <tspan x="577" y="107">Word→|</tspan>
        <tspan x="637" y="107">→|Word</tspan>
        <tspan x="606" y="41">Git add</tspan>
        <tspan x="606" y="54">hunk</tspan>
        <tspan x="623" y="228">Next W</tspan>
        <tspan x="710" y="167">␣insert</tspan>
        <tspan x="678" y="228">Duplicate</tspan>
        <tspan x="772" y="167">Find next</tspan>
        <tspan x="95" y="280">LSP</tspan>
        <tspan x="95" y="293">Help</tspan>
        <tspan x="156" y="280">Cmd</tspan>
        <tspan x="156" y="293">Palette</tspan>
        <tspan x="8" y="161">Normal mode/</tspan>
        <tspan x="8" y="174">Center text</tspan>
    </text>

    <text style="font-size:20px">
        <tspan x="860" y="36">⌫</tspan>
    </text>

    <text style="font-size:28px">
        <tspan x="772" y="145">↵</tspan>
    </text>

    <text style="font-weight:bold;font-size:16px">
        <tspan x="780" y="166"></tspan>
        <tspan x="8" y="141">Esc</tspan>
        <tspan x="8" y="90">↹</tspan>
        <tspan x="155" y="263">Ctrl</tspan>
        <tspan x="95" y="263">Alt</tspan>
        <tspan x="360" y="277">Show Overlay</tspan>
    </text>

    <text style="font-weight:bold;font-size:20px">
        <tspan x="8" y="210">⇧</tspan>
        <tspan x="66" y="21">1</tspan>
        <tspan x="97" y="81">'</tspan>
        <tspan x="126" y="21">2</tspan>
        <tspan x="143" y="201">;</tspan>
        <tspan x="157" y="81">,</tspan>
        <tspan x="186" y="21">3</tspan>
        <tspan x="203" y="201">Q</tspan>
        <tspan x="217" y="81">.</tspan>
        <tspan x="246" y="21">4</tspan>
        <tspan x="263" y="201">J</tspan>
        <tspan x="277" y="81">P</tspan>
        <tspan x="306" y="21">5</tspan>
        <tspan x="323" y="201">K</tspan>
        <tspan x="337" y="81">Y</tspan>
        <tspan x="352" y="141">I</tspan>
        <tspan x="366" y="21">6</tspan>
        <tspan x="383" y="201">X</tspan>
        <tspan x="397" y="81">F</tspan>
        <tspan x="412" y="141">D</tspan>
        <tspan x="426" y="21">7</tspan>
        <tspan x="443" y="201">B</tspan>
        <tspan x="457" y="81">G</tspan>
        <tspan x="486" y="21">8</tspan>
        <tspan x="503" y="201">M</tspan>
        <tspan x="517" y="81">C</tspan>
        <tspan x="546" y="21">9</tspan>
        <tspan x="563" y="201">W</tspan>
        <tspan x="577" y="81">R</tspan>
        <tspan x="606" y="21">0</tspan>
        <tspan x="623" y="201">V</tspan>
        <tspan x="637" y="81">L</tspan>
        <tspan x="666" y="21">[</tspan>
        <tspan x="683" y="201">Z</tspan>
        <tspan x="704" y="111">/</tspan>
        <tspan x="704" y="85">?</tspan>
        <!-- <tspan x="720" y="146">_</tspan> -->
        <tspan x="712" y="140">–</tspan>
        <tspan x="761" y="111">=</tspan>
        <tspan x="761" y="85">+</tspan>
        <tspan x="822" y="112">\</tspan>
        <tspan x="822" y="85">|</tspan>
        <tspan x="870" y="210">⇧</tspan>
    </text>

</svg>
