<?xml version="1.0" encoding="UTF-8" standalone="yes"?>
<svg xmlns="http://www.w3.org/2000/svg" height="301" width="901" version="1.0" style="font-family:sans-serif;font-weight:normal;font-size:12px;fill:#4B4B4B" >
    <g style="stroke:#000000;stroke-width:1">
        <path d="m 105.5,120.5 60,0 0,60 -60,0 0,-60 z"/>
        <path d="m 165.5,120.5 60,0 0,60 -60,0 0,-60 z"/>
        <path d="m 225.5,120.5 60,0 0,60 -60,0 0,-60 z"/>
        <path d="m 285.5,120.5 60,0 0,60 -60,0 0,-60 z"/>
        <path d="m 465.5,120.5 60,0 0,60 -60,0 0,-60 z"/>
        <path d="m 525.5,120.5 60,0 0,60 -60,0 0,-60 z"/>
        <path d="m 585.5,120.5 60,0 0,60 -60,0 0,-60 z"/>
        <path d="m 645.5,120.5 60,0 0,60 -60,0 0,-60 z"/>
        <g style="fill:#ffffff">
            <path d="m 0.5,0.5 60,0 0,60 -60,0 0,-60 z"/>
            <path d="m 60.5,0.5 60,0 0,60 -60,0 0,-60 z"/>
            <path d="m 120.5,0.5 60,0 0,60 -60,0 0,-60 z"/>
            <path d="m 180.5,0.5 60,0 0,60 -60,0 0,-60 z"/>
            <path d="m 240.5,0.5 60,0 0,60 -60,0 0,-60 z"/>
            <path d="m 300.5,0.5 60,0 0,60 -60,0 0,-60 z"/>
            <path d="m 360.5,0.5 60,0 0,60 -60,0 0,-60 z"/>
            <path d="m 420.5,0.5 60,0 0,60 -60,0 0,-60 z"/>
            <path d="m 480.5,0.5 60,0 0,60 -60,0 0,-60 z"/>
            <path d="m 540.5,0.5 60,0 0,60 -60,0 0,-60 z"/>
            <path d="m 600.5,0.5 60,0 0,60 -60,0 0,-60 z"/>
            <path d="m 660.5,0.5 60,0 0,60 -60,0 0,-60 z"/>
            <path d="m 720.5,0.5 60,0 0,60 -60,0 0,-60 z"/>
            <path d="m 90.5,60.5 60,0 0,60 -60,0 0,-60 z"/>
            <path d="m 150.5,60.5 60,0 0,60 -60,0 0,-60 z"/>
            <path d="m 210.5,60.5 60,0 0,60 -60,0 0,-60 z"/>
            <path d="m 270.5,60.5 60,0 0,60 -60,0 0,-60 z"/>
            <path d="m 330.5,60.5 60,0 0,60 -60,0 0,-60 z"/>
            <path d="m 390.5,60.5 60,0 0,60 -60,0 0,-60 z"/>
            <path d="m 450.5,60.5 60,0 0,60 -60,0 0,-60 z"/>
            <path d="m 510.5,60.5 60,0 0,60 -60,0 0,-60 z"/>
            <path d="m 570.5,60.5 60,0 0,60 -60,0 0,-60 z"/>
            <path d="m 630.5,60.5 60,0 0,60 -60,0 0,-60 z"/>
            <path d="m 690.5,60.5 60,0 0,60 -60,0 0,-60 z"/>
            <path d="m 750.5,60.5 60,0 0,60 -60,0 0,-60 z"/>
            <path d="m 345.5,120.5 60,0 0,60 -60,0 0,-60 z"/>
            <path d="m 405.5,120.5 60,0 0,60 -60,0 0,-60 z"/>
            <path d="m 705.5,120.5 60,0 0,60 -60,0 0,-60 z"/>
            <path d="m 135.5,180.5 60,0 0,60 -60,0 0,-60 z"/>
            <path d="m 255.5,180.5 60,0 0,60 -60,0 0,-60 z"/>
            <path d="m 195.5,180.5 60,0 0,60 -60,0 0,-60 z"/>
            <path d="m 315.5,180.5 60,0 0,60 -60,0 0,-60 z"/>
            <path d="m 375.5,180.5 60,0 0,60 -60,0 0,-60 z"/>
            <path d="m 435.5,180.5 60,0 0,60 -60,0 0,-60 z"/>
            <path d="m 495.5,180.5 60,0 0,60 -60,0 0,-60 z"/>
            <path d="m 555.5,180.5 60,0 0,60 -60,0 0,-60 z"/>
            <path d="m 615.5,180.5 60,0 0,60 -60,0 0,-60 z"/>
            <path d="m 675.5,180.5 60,0 0,60 -60,0 0,-60 z"/>
            <path d="m 240.5,240.5 360,0 0,60 -360,0 0,-60 z"/>
        </g>
        <g style="fill:#EBEDEF">

            <path d="m 810.5,60.5 90,0 0,60 -90,0 0,-60 z"/>
            <path d="m 90.5,240.5 60,0 0,60 -60,0 0,-60 z"/>
            <path d="m 690.5,240.5 60,0 0,60 -60,0 0,-60 z"/>
            <path d="m 750.5,240.5 60,0 0,60 -60,0 0,-60 z"/>
            <path d="m 780.5,0.5 120,0 0,60 -120,0 0,-60 z"/>
            <path d="m 0.5,60.5 90,0 0,60 -90,0 0,-60 z"/>
            <path d="m 0.5,120.5 105,0 0,60 -105,0 0,-60 z"/>
            <path d="m 765.5,120.5 135,0 0,60 -135,0 0,-60 z"/>
            <path d="m 0.5,180.5 135,0 0,60 -135,0 0,-60 z"/>
            <path d="m 735.5,180.5 165,0 0,60 -165,0 0,-60 z"/>
            <path d="m 0.5,240.5 90,0 0,60 -90,0 0,-60 z"/>
            <path d="m 810.5,240.5 90,0 0,60 -90,0 0,-60 z"/>
            <path d="m 150.5,240.5 90,0 0,60 -90,0 0,-60 z"/>
            <path d="m 600.5,240.5 90,0 0,60 -90,0 0,-60 z"/>
        </g>
    </g>

    <g style="fill:#909090">
        <text>
            <tspan x="665" y="48">Deindent</tspan>
            <tspan x="726" y="48">Indent</tspan>
            <tspan x="651" y="167">Save</tspan>
            <tspan x="693" y="107">Comment</tspan>
            <tspan x="275" y="102">Goto</tspan>
            <tspan x="683" y="228">Undo</tspan>
            <tspan x="560" y="228">Close W.</tspan>
            <tspan x="275" y="115">Anything</tspan>
            <tspan x="410" y="161">Select</tspan>
            <tspan x="410" y="174">Under C.</tspan>
        </text>

    </g>

    <g style="fill:#FF9800">
        <text>
            <tspan x="111" y="167">|← ↖&#xFE0E;</tspan>
            <tspan x="169" y="167">|← Word</tspan>
            <tspan x="472" y="167">Search</tspan>
            <tspan x="537" y="167">↓</tspan>
            <tspan x="591" y="167">Next</tspan>
            <tspan x="237" y="167">⌦</tspan>
            <tspan x="290" y="167">Word →|</tspan>
        </text>

        <text style="font-weight:bold;font-size:20px">
            <tspan x="112" y="141">A</tspan>
            <tspan x="172" y="141">O</tspan>
            <tspan x="232" y="141">E</tspan>
            <tspan x="292" y="141">U</tspan>
            <tspan x="472" y="141">H</tspan>
            <tspan x="532" y="141">T</tspan>
            <tspan x="591" y="141">N</tspan>
            <tspan x="652" y="141">S</tspan>
        </text>
    </g>

    <text>
        <tspan x="201" y="228">Cut</tspan>
        <tspan x="214" y="107">Newline</tspan>
        <tspan x="456" y="107">Prev</tspan>
        <tspan x="8" y="107">Forward char</tspan>
        <tspan x="336" y="102">Select</tspan>
        <tspan x="336" y="115">Line</tspan>
        <tspan x="263" y="228">Copy</tspan>
        <tspan x="323" y="228">Paste</tspan>
        <tspan x="349" y="167"></tspan>
        <tspan x="378" y="228">Duplicate</tspan>
        <tspan x="355" y="167">→| ↘&#xFE0E;</tspan>
        <tspan x="4" y="41">Toggle</tspan>
        <tspan x="4" y="54">Sidebar</tspan>
        <tspan x="426" y="41">Revert</tspan>
        <tspan x="426" y="54">Hunk</tspan>
        <tspan x="443" y="221">Add C.</tspan>
        <tspan x="443" y="234">Below</tspan>
        <tspan x="486" y="41">Next</tspan>
        <tspan x="486" y="54">mod</tspan>
        <tspan x="531" y="107">↑</tspan>
        <tspan x="544" y="41">Toggle</tspan>
        <tspan x="544" y="54">inline diff</tspan>
        <tspan x="637" y="107">Jump</tspan>
        <tspan x="709" y="161">Goto</tspan>
        <tspan x="709" y="174">Definition</tspan>
        <tspan x="637" y="107"></tspan>
        <tspan x="606" y="41">Git add</tspan>
        <tspan x="606" y="54">hunk</tspan>
        <tspan x="621" y="221">Next</tspan>
        <tspan x="621" y="233">Window</tspan>
        <tspan x="772" y="167">Sneak →</tspan>
        <tspan x="95" y="280">LSP</tspan>
        <tspan x="95" y="293">Help</tspan>
        <tspan x="156" y="293">Center</tspan>
        <tspan x="156" y="280">Single Sel./</tspan>
        <tspan x="8" y="167">Sneak ←</tspan>
        <tspan x="814" y="107">Backward char</tspan>
    </text>

    <text style="font-size:20px">
        <tspan x="860" y="36">⌫</tspan>
    </text>

    <text style="font-size:28px">
        <tspan x="772" y="145">↵</tspan>
    </text>

    <text style="font-weight:bold;font-size:16px">
        <tspan x="780" y="166"></tspan>
        <tspan x="8" y="141">Esc</tspan>
        <tspan x="8" y="90">↹</tspan>
        <tspan x="155" y="263">Ctrl</tspan>
        <tspan x="95" y="263">Alt</tspan>
    </text>

    <text style="font-weight:bold;font-size:20px">
        <tspan x="8" y="210">⇧</tspan>
        <tspan x="8" y="26">`</tspan>
        <tspan x="66" y="21">1</tspan>
        <tspan x="97" y="81">'</tspan>
        <tspan x="126" y="21">2</tspan>
        <tspan x="141" y="201">;</tspan>
        <tspan x="157" y="81">,</tspan>
        <tspan x="186" y="21">3</tspan>
        <tspan x="201" y="201">Q</tspan>
        <tspan x="217" y="81">.</tspan>
        <tspan x="246" y="21">4</tspan>
        <tspan x="263" y="201">J</tspan>
        <tspan x="277" y="81">P</tspan>
        <tspan x="306" y="21">5</tspan>
        <tspan x="323" y="201">K</tspan>
        <tspan x="337" y="81">Y</tspan>
        <tspan x="352" y="141">I</tspan>
        <tspan x="366" y="21">6</tspan>
        <tspan x="383" y="201">X</tspan>
        <tspan x="397" y="81">F</tspan>
        <tspan x="412" y="141">D</tspan>
        <tspan x="426" y="21">7</tspan>
        <tspan x="443" y="201">B</tspan>
        <tspan x="457" y="81">G</tspan>
        <tspan x="486" y="21">8</tspan>
        <tspan x="503" y="201">M</tspan>
        <tspan x="517" y="81">C</tspan>
        <tspan x="546" y="21">9</tspan>
        <tspan x="562" y="201">W</tspan>
        <tspan x="577" y="81">R</tspan>
        <tspan x="606" y="21">0</tspan>
        <tspan x="621" y="201">V</tspan>
        <tspan x="637" y="81">L</tspan>
        <tspan x="666" y="21">[</tspan>
        <tspan x="726" y="21">]</tspan>
        <tspan x="683" y="201">Z</tspan>
        <tspan x="698" y="81">/</tspan>
        <tspan x="712" y="140">–</tspan>
        <tspan x="761" y="111">=</tspan>
        <tspan x="761" y="85">+</tspan>
        <tspan x="822" y="85">\</tspan>
        <tspan x="870" y="210">⇧</tspan>
    </text>

</svg>
